<mxfile host="app.diagrams.net" agent="Mozilla/5.0 (Windows NT 10.0; Win64; x64) AppleWebKit/537.36 (KHTML, like Gecko) Chrome/135.0.0.0 Safari/537.36 Edg/135.0.0.0" version="26.1.1">
  <diagram name="Страница — 1" id="btFBaewBa144QYa0eyU_">
    <mxGraphModel dx="654" dy="948" grid="1" gridSize="10" guides="1" tooltips="1" connect="1" arrows="1" fold="1" page="1" pageScale="1" pageWidth="827" pageHeight="1169" math="0" shadow="0">
      <root>
        <mxCell id="0" />
        <mxCell id="1" parent="0" />
        <mxCell id="t6HYpwNg17oA0btWXqX_-1" value="Генеральный директор" style="rounded=0;whiteSpace=wrap;html=1;fontSize=21;" vertex="1" parent="1">
          <mxGeometry x="340" y="230" width="150" height="60" as="geometry" />
        </mxCell>
        <mxCell id="t6HYpwNg17oA0btWXqX_-3" value="Руководитель отдела маркетинга" style="rounded=0;whiteSpace=wrap;html=1;fontSize=21;" vertex="1" parent="1">
          <mxGeometry x="90" y="340" width="200" height="60" as="geometry" />
        </mxCell>
        <mxCell id="t6HYpwNg17oA0btWXqX_-4" value="SMM-специалист" style="rounded=0;whiteSpace=wrap;html=1;fontSize=21;" vertex="1" parent="1">
          <mxGeometry x="580" y="340" width="200" height="60" as="geometry" />
        </mxCell>
      </root>
    </mxGraphModel>
  </diagram>
</mxfile>
